#N canvas 920 202 277 254 10;
#X text 14 13 3D Data Manipulation Library for PD v.1.0;
#X text 13 29 (c) Quim Llimona Torras 2011;
#N canvas 805 288 163 239 Low-Level 0;
#X obj 29 49 3dDeterminant;
#X obj 29 72 3dNormalize;
#X obj 29 26 3dOrthoNormal;
#X obj 29 95 3dTransform;
#X obj 29 118 3dTransposeMat;
#X obj 29 141 3dInvertMat;
#X obj 29 164 3dProject;
#X restore 24 88 pd Low-Level;
#N canvas 750 259 129 211 Arithmetics 0;
#X obj 25 25 3dCrossProd;
#X obj 25 48 3dModulus;
#X obj 25 94 3dProd;
#X obj 25 117 3dSum;
#X obj 25 140 3dDiff;
#X obj 25 162 3dVector;
#X obj 25 71 3dDotProd;
#X restore 24 62 pd Arithmetics;
#N canvas 807 284 176 169 Mid-Level 0;
#X obj 46 38 3dDistToPlane;
#X obj 47 61 3dDistToPoint;
#X obj 47 84 3dVelocity;
#X obj 47 106 3dSmoothPlane;
#X restore 24 114 pd Mid-Level;
#N canvas 778 409 147 127 High-Level 0;
#X obj 6 27 3dReference;
#X obj 6 52 3dPlaneGenerator;
#X obj 6 77 3dCircle;
#X restore 24 140 pd High-Level;
#N canvas 425 308 111 104 Demos 0;
#X obj 16 31 3dTheremin;
#X restore 24 195 pd Demos;
#X text 18 219 Please choose the topic of your interest;
#N canvas 600 259 357 278 Utils 1;
#X obj 8 -17 3dPoint;
#X obj 118 -16 3dJointViewer;
#X obj 248 28 3dJointParser;
#X obj 248 49 3dRange;
#X obj 248 88 3dBasisCod;
#X obj 248 110 3dBasisDecod;
#X obj 12 69 3dSlider;
#X restore 24 167 pd Utils;
