#N canvas 446 59 562 539 10;
#X declare -lib mrpeach;
#X obj 241 283 import mrpeach;
#X obj 241 331 unpackOSC;
#X obj 241 351 routeOSC /joint;
#X obj 241 311 udpreceive 7110;
#X obj 241 437 s l_hand;
#X obj 296 437 s r_hand;
#X obj 20 423 mtof;
#X obj 20 447 osc~;
#X msg 386 292 \; pd dsp \$1;
#X obj 386 272 tgl 15 0 empty empty empty 17 7 0 10 -262144 -1 -1 1
1;
#X obj 20 482 *~ 0.1;
#X floatatom 20 400 5 0 0 0 - - -;
#X obj 241 393 3dJointParser;
#X obj 296 414 3dJointParser;
#X obj 352 393 3dJointParser;
#X obj 466 393 3dJointParser;
#X obj 410 414 3dJointParser;
#X obj 410 437 s r_hip;
#X obj 466 437 s head;
#X obj 241 372 route l_hand r_hand torso r_hip head;
#X obj 352 437 s torso;
#X obj 134 14 r torso;
#X obj 20 56 3dVector;
#X obj 20 262 3dModulus;
#X obj 20 79 3dSlider;
#X obj 209 78 3dSlider;
#X obj 209 54 3dVector;
#X floatatom 179 347 8 0 0 0 - - -;
#X obj 129 430 bng 15 250 50 0 empty empty empty 17 7 0 10 -262144
-1 -1;
#X floatatom 157 485 5 0 0 0 - - -;
#X obj 155 451 line 0;
#X obj 59 424 mtof;
#X obj 59 448 osc~;
#X obj 95 424 mtof;
#X obj 95 448 osc~;
#X obj 95 400 + 7;
#X obj 59 401 + 4;
#X msg 155 429 1 \, 0 1000;
#X floatatom 129 193 5 0 0 0 - - -;
#X floatatom 172 243 5 0 0 0 - - -;
#X msg 143 218 0;
#X obj 128 243 max;
#X obj 20 285 expr 1-($f1/$f2);
#X obj 9 339 i;
#X obj 20 364 + 36;
#X obj 20 313 * 36;
#X obj 155 298 3dCrossProd;
#X obj 155 323 3dModulus;
#X obj 155 372 3dRange;
#X obj 155 397 sel 1;
#X obj 328 257 r osc;
#X floatatom 111 352 5 0 0 0 - - -;
#X obj 20 13 r r_hand;
#X obj 209 15 r l_hand;
#X obj 3 531 dac~;
#X obj 20 508 spigot~;
#X obj 99 500 tgl 15 0 empty empty empty 17 7 0 10 -262144 -1 -1 1
1;
#X connect 1 0 2 0;
#X connect 2 0 19 0;
#X connect 3 0 1 0;
#X connect 6 0 7 0;
#X connect 7 0 10 0;
#X connect 9 0 8 0;
#X connect 10 0 55 0;
#X connect 11 0 6 0;
#X connect 12 0 4 0;
#X connect 13 0 5 0;
#X connect 14 0 20 0;
#X connect 15 0 18 0;
#X connect 16 0 17 0;
#X connect 19 0 12 0;
#X connect 19 1 13 0;
#X connect 19 2 14 0;
#X connect 19 3 16 0;
#X connect 19 4 15 0;
#X connect 21 0 22 1;
#X connect 21 0 26 1;
#X connect 22 0 24 0;
#X connect 23 0 38 0;
#X connect 23 0 42 0;
#X connect 24 0 23 0;
#X connect 24 0 46 0;
#X connect 25 0 46 1;
#X connect 26 0 25 0;
#X connect 27 0 48 1;
#X connect 30 0 10 1;
#X connect 30 0 29 0;
#X connect 31 0 32 0;
#X connect 32 0 10 0;
#X connect 33 0 34 0;
#X connect 34 0 10 0;
#X connect 35 0 33 0;
#X connect 36 0 31 0;
#X connect 37 0 30 0;
#X connect 38 0 41 0;
#X connect 39 0 41 1;
#X connect 40 0 41 1;
#X connect 41 0 39 0;
#X connect 41 0 42 1;
#X connect 42 0 45 0;
#X connect 43 0 44 0;
#X connect 44 0 11 0;
#X connect 44 0 36 0;
#X connect 44 0 35 0;
#X connect 45 0 43 0;
#X connect 46 0 47 0;
#X connect 47 0 48 0;
#X connect 47 0 51 0;
#X connect 48 0 49 0;
#X connect 49 0 37 0;
#X connect 49 0 28 0;
#X connect 50 0 2 0;
#X connect 52 0 22 0;
#X connect 53 0 26 0;
#X connect 55 0 54 1;
#X connect 55 0 54 0;
#X connect 56 0 55 1;
