#N canvas 653 61 561 649 10;
#X declare -lib mrpeach;
#X obj 241 283 import mrpeach;
#X obj 241 331 unpackOSC;
#X obj 241 351 routeOSC /joint;
#X obj 241 311 udpreceive 7110;
#X obj 241 437 s l_hand;
#X obj 296 437 s r_hand;
#X obj 19 490 mtof;
#X obj 19 554 osc~;
#X msg 386 292 \; pd dsp \$1;
#X obj 386 272 tgl 15 0 empty empty empty 17 7 0 10 -262144 -1 -1 0
1;
#X obj 19 575 *~ 0.1;
#X obj 19 601 dac~;
#X floatatom 19 467 5 0 0 0 - - -;
#X obj 241 393 3dJointParser;
#X obj 296 414 3dJointParser;
#X obj 352 393 3dJointParser;
#X obj 466 393 3dJointParser;
#X obj 410 414 3dJointParser;
#X obj 410 437 s r_hip;
#X obj 466 437 s head;
#X obj 241 372 route l_hand r_hand torso r_hip head;
#X obj 20 56 3dVector;
#X obj 19 288 3dModulus;
#X obj 20 79 3dSlider;
#X obj 209 78 3dSlider;
#X obj 176 430 3dModulus;
#X obj 352 437 s neck;
#X obj 78 14 r neck;
#X obj 209 54 3dDiff;
#X obj 164 356 3dProject;
#X obj 180 381 3dProd -1;
#X obj 198 406 3dSum;
#X obj 197 320 t l l;
#X obj 20 13 r r_hand;
#X obj 209 15 r l_hand;
#X floatatom 176 616 5 0 0 0 - - -;
#X obj 19 379 * 80;
#X obj 19 431 + 12;
#X obj 19 334 expr 1-($f1);
#X obj 31 356 hsl 128 15 0 127 0 0 empty empty empty -2 -8 0 10 -262144
-1 -1 0 1;
#X obj 35 404 hsl 128 15 -64 64 0 0 empty empty empty -2 -8 0 10 -262144
-1 -1 0 1;
#X obj 19 530 line;
#X msg 19 510 \$1 30;
#X text 60 370 Range;
#X text 61 419 Offset;
#X obj 176 505 abs;
#X obj 176 580 line;
#X msg 176 555 \$1 30;
#X obj 176 530 * 7;
#X obj 176 480 sin;
#X obj 176 455 * 1.6;
#X obj 133 183 3dCrossProd;
#X obj 140 59 3dVector;
#X obj 133 239 3dProject;
#X obj 149 264 3dProd -1;
#X obj 167 289 3dSum;
#X obj 133 140 t l l l;
#X connect 1 0 2 0;
#X connect 2 0 20 0;
#X connect 3 0 1 0;
#X connect 6 0 42 0;
#X connect 7 0 10 0;
#X connect 9 0 8 0;
#X connect 10 0 11 0;
#X connect 10 0 11 1;
#X connect 12 0 6 0;
#X connect 13 0 4 0;
#X connect 14 0 5 0;
#X connect 15 0 26 0;
#X connect 16 0 19 0;
#X connect 17 0 18 0;
#X connect 20 0 13 0;
#X connect 20 1 14 0;
#X connect 20 2 15 0;
#X connect 20 3 17 0;
#X connect 20 4 16 0;
#X connect 21 0 23 0;
#X connect 22 0 38 0;
#X connect 23 0 22 0;
#X connect 23 0 29 1;
#X connect 25 0 50 0;
#X connect 27 0 21 1;
#X connect 27 0 52 1;
#X connect 28 0 24 0;
#X connect 28 0 56 0;
#X connect 29 0 30 0;
#X connect 30 0 31 0;
#X connect 31 0 25 0;
#X connect 32 0 29 0;
#X connect 32 1 31 1;
#X connect 33 0 21 0;
#X connect 34 0 28 0;
#X connect 34 0 52 0;
#X connect 36 0 37 0;
#X connect 37 0 12 0;
#X connect 38 0 36 0;
#X connect 39 0 36 1;
#X connect 40 0 37 1;
#X connect 41 0 7 0;
#X connect 42 0 41 0;
#X connect 45 0 48 0;
#X connect 46 0 35 0;
#X connect 46 0 10 1;
#X connect 47 0 46 0;
#X connect 48 0 47 0;
#X connect 49 0 45 0;
#X connect 50 0 49 0;
#X connect 51 0 53 1;
#X connect 52 0 51 1;
#X connect 53 0 54 0;
#X connect 54 0 55 0;
#X connect 55 0 32 0;
#X connect 56 0 53 0;
#X connect 56 1 55 1;
#X connect 56 2 51 0;
