#N canvas 575 240 272 431 10;
#X obj 78 347 ctlout \$1;
#X obj 199 285 inlet;
#X obj 59 33 inlet;
#X obj 78 197 range 0 1 0 127;
#X obj 78 302 change;
#X obj 59 89 unpack;
#X obj 185 132 max;
#X floatatom 213 132 5 0 0 0 - - -;
#X floatatom 211 163 5 0 0 0 - - -;
#X obj 59 58 route range smooth log reset;
#X obj 184 163 min;
#X obj 32 347 outlet;
#X obj 18 34 r ctl;
#X obj 182 85 f;
#X obj 114 32 inlet;
#X obj 182 38 bng 15 250 50 0 empty empty empty 17 7 0 10 -262144 -1
-1;
#X obj 142 227 loadbang;
#X obj 97 227 smooth;
#X msg 142 248 0;
#X obj 78 271 mux . .;
#X connect 1 0 0 1;
#X connect 2 0 9 0;
#X connect 3 0 17 0;
#X connect 3 0 19 0;
#X connect 4 0 0 0;
#X connect 4 0 11 0;
#X connect 5 0 3 3;
#X connect 5 1 3 4;
#X connect 6 0 7 0;
#X connect 6 0 3 2;
#X connect 7 0 6 1;
#X connect 8 0 10 1;
#X connect 9 0 5 0;
#X connect 9 1 19 2;
#X connect 9 2 3 5;
#X connect 9 3 13 0;
#X connect 9 4 3 0;
#X connect 9 4 6 0;
#X connect 9 4 10 0;
#X connect 9 4 13 1;
#X connect 10 0 8 0;
#X connect 10 0 3 1;
#X connect 12 0 9 0;
#X connect 13 0 6 1;
#X connect 13 0 10 1;
#X connect 14 0 15 0;
#X connect 15 0 13 0;
#X connect 16 0 18 0;
#X connect 17 0 19 1;
#X connect 18 0 19 2;
#X connect 19 0 4 0;
