#N canvas 576 22 640 752 10;
#X declare -lib mrpeach;
#X obj 435 46 import mrpeach;
#X obj 435 94 unpackOSC;
#X obj 435 114 routeOSC /joint;
#X obj 435 74 udpreceive 7110;
#X obj 111 246 list;
#X obj 27 190 bng 30 250 50 0 empty empty empty 17 7 0 10 -258113 -1
-1;
#X obj 435 249 s l_hand;
#X obj 490 249 s r_hand;
#X obj 31 343 mtof;
#X obj 31 407 osc~;
#X msg 300 399 \; pd dsp \$1;
#X obj 300 379 tgl 15 0 empty empty empty 17 7 0 10 -262144 -1 -1 1
1;
#X obj 31 437 *~ 0.1;
#X obj 31 463 dac~;
#X obj 31 265 3dDistToPoint;
#X obj 219 191 bng 30 250 50 0 empty empty empty 17 7 0 10 -258113
-1 -1;
#X obj 218 265 3dDistToPoint;
#X obj 269 12 r r_hand;
#X obj 218 333 log;
#X floatatom 218 362 5 0 0 0 - - -;
#X obj 218 308 + 1;
#X text 186 170 calib volume;
#X text -3 172 calib pitch;
#X obj 31 317 + 127;
#X floatatom -7 344 5 0 0 0 - - -;
#X obj 121 265 s pitch_center;
#X obj 309 266 s vol_center;
#X obj 397 290 r pitch_center;
#X obj 505 290 r vol_center;
#X obj 76 17 r l_hand;
#X obj 397 311 3dPoint;
#X obj 505 311 3dPoint;
#X obj 300 239 list;
#X obj 386 73 r osc;
#X obj 77 38 3dJointViewer;
#X obj 269 34 3dJointViewer;
#X obj 84 356 spigot~;
#X obj 126 332 tgl 15 0 empty empty empty 17 7 0 10 -262144 -1 -1 0
1;
#X obj 14 429 line~;
#X obj 434 134 route l_hand r_hand torso;
#X obj 31 294 * -200;
#X obj 168 394 * 4;
#X msg 12 368 \$1 30;
#X connect 1 0 2 0;
#X connect 2 0 39 0;
#X connect 3 0 1 0;
#X connect 4 0 14 1;
#X connect 4 0 25 0;
#X connect 5 0 4 0;
#X connect 8 0 42 0;
#X connect 9 0 36 0;
#X connect 11 0 10 0;
#X connect 12 0 13 0;
#X connect 12 0 13 1;
#X connect 14 0 40 0;
#X connect 15 0 32 0;
#X connect 16 0 20 0;
#X connect 17 0 35 0;
#X connect 18 0 19 0;
#X connect 18 0 41 0;
#X connect 20 0 18 0;
#X connect 23 0 8 0;
#X connect 23 0 24 0;
#X connect 27 0 30 0;
#X connect 28 0 31 0;
#X connect 29 0 34 0;
#X connect 32 0 16 1;
#X connect 32 0 26 0;
#X connect 33 0 2 0;
#X connect 34 0 4 1;
#X connect 34 0 14 0;
#X connect 35 0 32 1;
#X connect 35 0 16 0;
#X connect 36 0 12 0;
#X connect 37 0 36 1;
#X connect 38 0 9 0;
#X connect 39 0 6 0;
#X connect 39 1 7 0;
#X connect 40 0 23 0;
#X connect 41 0 12 1;
#X connect 42 0 38 0;
