#N canvas 963 416 163 216 10;
#X declare -lib mrpeach;
#X obj 12 12 import mrpeach;
#X obj 10 57 unpackOSC;
#X obj 10 77 routeOSC /joint;
#X obj 10 37 udpreceive 7110;
#X msg 79 167 \; pd dsp \$1;
#X obj 79 147 tgl 15 0 empty empty empty 17 7 0 10 -262144 -1 -1 0
1;
#X obj 9 180 dac~;
#X obj 9 124 3dTheremin;
#X obj 10 98 route r_hand l_hand;
#X connect 1 0 2 0;
#X connect 2 0 8 0;
#X connect 3 0 1 0;
#X connect 5 0 4 0;
#X connect 7 0 6 0;
#X connect 7 0 6 1;
#X connect 8 0 7 0;
#X connect 8 1 7 1;
