#N canvas 124 62 1018 638 10;
#X declare -lib mrpeach;
#X obj 12 -2 import mrpeach;
#X obj 10 43 unpackOSC;
#X obj 10 63 routeOSC /joint;
#X obj 10 23 udpreceive 7110;
#X obj 111 22 r osc;
#X obj 10 125 3dJointViewer;
#X obj 120 125 3dJointViewer;
#X obj 230 125 3dJointViewer;
#X obj 341 124 3dJointViewer;
#X obj 454 124 3dJointViewer;
#X obj 568 123 3dJointViewer;
#X obj 682 123 3dJointViewer;
#X text 32 296 r_hand;
#X text 142 297 l_hand;
#X text 262 297 r_foot;
#X text 363 295 l_foot;
#X obj 179 401 unpack 0 0 0;
#X obj 384 402 3dVector;
#X obj 384 422 3dModulus;
#X obj 566 422 unpack 0 0 0;
#X floatatom 50 585 5 0 0 0 - - -;
#X obj 283 421 unpack 0 0 0;
#X obj 10 84 route r_hand l_hand r_foot l_foot torso head r_shoulder
l_shoulder;
#X obj 794 123 3dJointViewer;
#X text 487 295 torso;
#X text 601 296 head;
#X text 715 296 r_shoulder;
#X text 827 296 l_shoulder;
#X obj 283 401 3dVector;
#X obj 566 400 3dDiff;
#X obj 891 333 3dSlider;
#X obj 664 400 3dDiff;
#X obj 664 422 3dModulus;
#X msg 628 72 \; ctl reset;
#X msg 515 73 \; ctl range \$1 \$2;
#X obj 515 51 pack;
#X obj 515 30 t b f;
#X obj 50 563 controller 64;
#X floatatom 480 8 5 0 0 0 - - -;
#X floatatom 515 8 5 0 0 0 - - -;
#X text 476 -11 min....max;
#X obj 807 60 pack;
#X obj 807 39 t b f;
#X floatatom 772 17 5 0 0 0 - - -;
#X floatatom 807 17 5 0 0 0 - - -;
#X text 768 -2 min....max;
#X obj 87 543 bng 15 250 50 0 empty empty empty 17 7 0 10 -262144 -1
-1;
#X floatatom 125 542 5 0 0 0 - - -;
#X floatatom 166 585 5 0 0 0 - - -;
#X obj 203 543 bng 15 250 50 0 empty empty empty 17 7 0 10 -262144
-1 -1;
#X floatatom 241 542 5 0 0 0 - - -;
#X floatatom 284 583 5 0 0 0 - - -;
#X obj 321 541 bng 15 250 50 0 empty empty empty 17 7 0 10 -262144
-1 -1;
#X floatatom 359 540 5 0 0 0 - - -;
#X floatatom 405 581 5 0 0 0 - - -;
#X obj 442 539 bng 15 250 50 0 empty empty empty 17 7 0 10 -262144
-1 -1;
#X floatatom 480 538 5 0 0 0 - - -;
#X floatatom 520 583 5 0 0 0 - - -;
#X obj 557 541 bng 15 250 50 0 empty empty empty 17 7 0 10 -262144
-1 -1;
#X floatatom 595 540 5 0 0 0 - - -;
#X floatatom 636 582 5 0 0 0 - - -;
#X obj 673 540 bng 15 250 50 0 empty empty empty 17 7 0 10 -262144
-1 -1;
#X floatatom 711 539 5 0 0 0 - - -;
#X floatatom 754 579 5 0 0 0 - - -;
#X obj 791 537 bng 15 250 50 0 empty empty empty 17 7 0 10 -262144
-1 -1;
#X floatatom 829 536 5 0 0 0 - - -;
#X floatatom 874 576 5 0 0 0 - - -;
#X obj 911 534 bng 15 250 50 0 empty empty empty 17 7 0 10 -262144
-1 -1;
#X floatatom 949 533 5 0 0 0 - - -;
#X msg 408 73 \; ctl smooth \$1;
#X obj 408 52 tgl 15 0 empty empty empty 17 7 0 10 -262144 -1 -1 0
1;
#X obj 166 563 controller 65;
#X obj 284 561 controller 66;
#X obj 405 559 controller 67;
#X obj 520 561 controller 68;
#X obj 636 560 controller 69;
#X obj 754 557 controller 70;
#X obj 874 554 controller 71;
#X obj 807 80 prepend range;
#X obj 458 400 3dDistToPoint;
#X obj 736 400 3dVelocity;
#N canvas 181 153 313 243 other 0;
#X obj 245 18 3dPoint;
#X obj 14 17 3dProject;
#X obj 14 44 3dSum;
#X obj 14 70 3dProd;
#X obj 15 96 3dDotProd;
#X obj 14 122 3dCrossProd;
#X restore 915 275 pd other;
#X connect 1 0 2 0;
#X connect 2 0 22 0;
#X connect 3 0 1 0;
#X connect 4 0 1 0;
#X connect 17 0 18 0;
#X connect 22 0 5 0;
#X connect 22 1 6 0;
#X connect 22 2 7 0;
#X connect 22 3 8 0;
#X connect 22 4 9 0;
#X connect 22 5 10 0;
#X connect 22 6 11 0;
#X connect 22 7 23 0;
#X connect 28 0 21 0;
#X connect 29 0 19 0;
#X connect 31 0 32 0;
#X connect 35 0 34 0;
#X connect 36 0 35 0;
#X connect 36 1 35 1;
#X connect 37 0 20 0;
#X connect 38 0 35 0;
#X connect 39 0 36 0;
#X connect 41 0 78 0;
#X connect 42 0 41 0;
#X connect 42 1 41 1;
#X connect 43 0 41 0;
#X connect 44 0 42 0;
#X connect 46 0 37 1;
#X connect 47 0 37 2;
#X connect 49 0 71 1;
#X connect 50 0 71 2;
#X connect 52 0 72 1;
#X connect 53 0 72 2;
#X connect 55 0 73 1;
#X connect 56 0 73 2;
#X connect 58 0 74 1;
#X connect 59 0 74 2;
#X connect 61 0 75 1;
#X connect 62 0 75 2;
#X connect 64 0 76 1;
#X connect 65 0 76 2;
#X connect 67 0 77 1;
#X connect 68 0 77 2;
#X connect 70 0 69 0;
#X connect 71 0 48 0;
#X connect 72 0 51 0;
#X connect 73 0 54 0;
#X connect 74 0 57 0;
#X connect 75 0 60 0;
#X connect 76 0 63 0;
#X connect 77 0 66 0;
