#N canvas 360 264 325 189 10;
#X obj 26 12 inlet;
#X obj 73 11 inlet;
#X obj 132 11 inlet;
#X obj 56 100 list;
#X obj 63 126 list;
#X obj 131 37 t b l;
#X obj 64 150 outlet;
#X obj 73 31 t b l;
#X obj 27 76 list;
#X obj 15 36 t b l;
#X connect 0 0 9 0;
#X connect 1 0 7 0;
#X connect 2 0 5 0;
#X connect 3 0 4 0;
#X connect 4 0 6 0;
#X connect 5 0 8 0;
#X connect 5 1 4 1;
#X connect 7 0 8 0;
#X connect 7 1 3 1;
#X connect 8 0 3 0;
#X connect 9 0 8 0;
#X connect 9 1 8 1;
