#N canvas 47 194 450 300 10;
#X obj 97 17 inlet;
#X obj 148 17 inlet;
#X obj 22 43 3dDistToPlane;
#X obj 240 47 inlet;
#X obj 148 43 3dDistToPoint;
#X obj 148 88 <;
#X obj 22 17 inlet;
#X obj 45 150 *;
#X obj 45 175 outlet;
#X connect 0 0 2 1;
#X connect 1 0 4 0;
#X connect 2 0 7 0;
#X connect 3 0 5 1;
#X connect 4 0 5 0;
#X connect 5 0 7 1;
#X connect 6 0 2 0;
#X connect 6 0 4 1;
#X connect 7 0 8 0;
