#N canvas 402 311 583 418 10;
#X obj 360 127 3dSum;
#X obj 350 23 3dPoint;
#X obj 424 23 3dPoint;
#X obj 360 151 3dPoint;
#X obj 416 128 3dCrossProd;
#X obj 499 128 3dProd;
#X floatatom 532 102 5 0 0 0 - - -;
#X obj 416 151 3dPoint;
#X obj 499 151 3dPoint;
#X obj 52 133 3dSum;
#X obj 16 153 3dCrossProd;
#X obj 46 173 3dProd;
#X floatatom 278 151 5 0 0 0 - - -;
#X obj 28 113 3dDotProd;
#X obj 278 127 3dDotProd;
#X text 89 112 3dDotProd: Dot Product;
#X text 89 130 3dSum: Sum;
#X text 89 152 3dCrossProd: Cross Product;
#X text 89 173 3dProd: Product by scalar;
#X text 27 21 3D arithmetic operators;
#X text 27 44 They're all activated only by;
#X obj 35 300 3dProd -1;
#X obj 35 221 3dPoint;
#X obj 35 321 3dPoint;
#X text 100 363 3dProd can take a scalar value as argument;
#X text 27 75 incoming vector or a bang;
#X text 28 60 the first inlet \, with either an;
#X obj 295 83 bng 15 250 50 0 empty empty empty 17 7 0 10 -262144 -1
-1;
#X connect 0 0 3 0;
#X connect 1 0 0 0;
#X connect 1 0 4 0;
#X connect 1 0 5 0;
#X connect 1 0 14 0;
#X connect 2 0 0 1;
#X connect 2 0 4 1;
#X connect 2 0 14 1;
#X connect 4 0 7 0;
#X connect 5 0 8 0;
#X connect 6 0 5 1;
#X connect 14 0 12 0;
#X connect 21 0 23 0;
#X connect 22 0 21 0;
#X connect 27 0 5 0;
#X connect 27 0 4 0;
#X connect 27 0 0 0;
#X connect 27 0 14 0;
