#N canvas 1494 80 215 254 10;
#X obj 7 -42 inlet;
#X obj 49 -41 inlet;
#X obj 12 164 outlet;
#X obj 22 -17 list;
#X obj 13 48 expr $f2*$f6 - $f3*$f5;
#X obj 41 75 expr $f3*$f4 - $f1*$f6;
#X obj 22 9 t l l l;
#X obj 12 138 pack f f f;
#X obj 69 101 expr $f1*$f5 - $f2*$f4;
#X connect 0 0 3 0;
#X connect 1 0 3 1;
#X connect 3 0 6 0;
#X connect 4 0 7 0;
#X connect 5 0 7 1;
#X connect 6 0 4 0;
#X connect 6 1 5 0;
#X connect 6 2 8 0;
#X connect 7 0 2 0;
#X connect 8 0 7 2;
