#N canvas 459 55 670 373 10;
#X obj 391 176 3dBasisCod;
#X obj 364 82 3dPoint;
#X obj 419 82 3dPoint;
#X obj 474 82 3dPoint;
#X obj 290 240 3dBasisDecod;
#X obj 269 275 3dPoint;
#X obj 324 275 3dPoint;
#X obj 379 275 3dPoint;
#X obj 462 241 3dBasisDecod;
#X obj 441 276 3dPoint;
#X obj 496 276 3dPoint;
#X obj 551 276 3dPoint;
#X obj 116 240 3dBasisDecod;
#X obj 95 275 3dPoint;
#X obj 150 275 3dPoint;
#X obj 205 275 3dPoint;
#X obj 290 217 3dInvertMat;
#X obj 462 217 3dOrthoNormal;
#X obj 116 216 3dTransposeMat;
#X obj 569 217 3dDeterminant;
#X floatatom 569 240 5 0 0 0 - - -;
#X text 10 33 They are all instantanious: any change in inlets;
#X text 10 47 changes automatically outlets;
#X msg 419 51 0 0 0;
#X text 10 11 3pD Matrix Operators;
#X text 10 114 3dDeterminant: Computes the determinant of a 3pD-Basis
;
#X text 10 130 3dInvertMat: Inverts a 3pD-Basis;
#X text 10 146 3dOrthoNormal: Orthonormalizes a 3pD-Basis;
#X text 9 161 3dTransposeMat: Transposes a 3pD-Basis;
#X text 11 79 3dBasisCod: Creates a 3pD-Basis from 3 3pD-Point;
#X text 11 94 3dBasisDecod: Outputs 3 3pD-Point from a 3pD-Basis;
#X connect 0 0 19 0;
#X connect 0 0 18 0;
#X connect 0 0 17 0;
#X connect 0 0 16 0;
#X connect 1 0 0 0;
#X connect 2 0 0 1;
#X connect 3 0 0 2;
#X connect 4 0 5 0;
#X connect 4 1 6 0;
#X connect 4 2 7 0;
#X connect 8 0 9 0;
#X connect 8 1 10 0;
#X connect 8 2 11 0;
#X connect 12 0 13 0;
#X connect 12 1 14 0;
#X connect 12 2 15 0;
#X connect 16 0 4 0;
#X connect 17 0 8 0;
#X connect 18 0 12 0;
#X connect 19 0 20 0;
#X connect 23 0 3 0;
#X connect 23 0 2 0;
#X connect 23 0 1 0;
