#N canvas 165 137 174 171 10;
#X obj 43 38 3dBasisDecod;
#X obj 43 14 inlet;
#X obj 76 68 3dCrossProd;
#X obj 25 130 outlet;
#X obj 25 101 3dDotProd;
#X connect 0 0 4 0;
#X connect 0 1 2 0;
#X connect 0 2 2 1;
#X connect 1 0 0 0;
#X connect 2 0 4 1;
#X connect 4 0 3 0;
