#N canvas 550 397 265 210 10;
#X text 19 15 3dDistToPoint: computes the euclidean;
#X text 19 31 distance between two points;
#X obj 66 153 3dDistToPoint;
#X obj 66 68 3dPoint;
#X obj 141 70 3dPoint;
#X floatatom 66 177 5 0 0 0 - - -;
#X connect 2 0 5 0;
#X connect 3 0 2 0;
#X connect 4 0 2 1;
