#N canvas 186 324 123 157 10;
#X obj 16 31 inlet;
#X obj 61 31 inlet;
#X obj 16 105 outlet;
#X obj 16 57 3dVector;
#X obj 16 79 3dModulus;
#X connect 0 0 3 0;
#X connect 1 0 3 1;
#X connect 3 0 4 0;
#X connect 4 0 2 0;
