#N canvas 163 254 447 352 10;
#X obj 28 16 inlet;
#X obj 35 161 outlet;
#X obj 28 40 unpack 0 0 0;
#X obj 35 135 pack 0 0 0;
#X obj 19 101 -;
#X obj 15 76 t f f;
#X obj 61 102 -;
#X obj 57 77 t f f;
#X obj 104 103 -;
#X obj 100 78 t f f;
#X connect 0 0 2 0;
#X connect 2 0 5 0;
#X connect 2 1 7 0;
#X connect 2 2 9 0;
#X connect 3 0 1 0;
#X connect 4 0 3 0;
#X connect 5 0 4 1;
#X connect 5 1 4 0;
#X connect 6 0 3 1;
#X connect 7 0 6 1;
#X connect 7 1 6 0;
#X connect 8 0 3 2;
#X connect 9 0 8 1;
#X connect 9 1 8 0;
