#N canvas 352 303 236 287 10;
#X obj 73 172 3dDiff;
#X obj 73 194 3dPoint;
#X obj 48 57 3dPoint;
#X obj 73 150 list;
#X obj 110 116 bng 15 250 50 0 empty empty empty 17 7 0 10 -262144
-1 -1;
#X obj 110 94 metro 30;
#X obj 110 74 tgl 15 0 empty empty empty 17 7 0 10 -262144 -1 -1 0
1;
#X text 127 74 Continuous;
#X text 127 117 Discrete;
#X obj 11 13 3dDiff;
#X text 60 8 Computes the differential;
#X text 60 24 of a given vector sequence;
#X connect 0 0 1 0;
#X connect 2 0 3 1;
#X connect 3 0 0 0;
#X connect 4 0 3 0;
#X connect 5 0 4 0;
#X connect 6 0 5 0;
