#N canvas 721 370 280 313 10;
#X obj 178 97 3dDeterminant;
#X obj 117 8 inlet;
#X obj 87 247 outlet;
#X obj 44 64 3dBasisDecod;
#X obj 42 104 3dCrossProd;
#X obj 52 114 3dCrossProd;
#X obj 62 124 3dCrossProd;
#X obj 178 123 inv;
#X obj 87 160 3dProd;
#X obj 115 181 3dProd;
#X obj 144 202 3dProd;
#X obj 87 225 3dBasisCod;
#X obj 117 29 t l l;
#X connect 0 0 7 0;
#X connect 1 0 12 0;
#X connect 3 0 5 1;
#X connect 3 0 6 0;
#X connect 3 1 4 0;
#X connect 3 1 6 1;
#X connect 3 2 4 1;
#X connect 3 2 5 0;
#X connect 4 0 8 0;
#X connect 5 0 9 0;
#X connect 6 0 10 0;
#X connect 7 0 8 1;
#X connect 7 0 9 1;
#X connect 7 0 10 1;
#X connect 8 0 11 0;
#X connect 9 0 11 1;
#X connect 10 0 11 2;
#X connect 11 0 2 0;
#X connect 12 0 3 0;
#X connect 12 1 0 0;
