#N canvas 315 214 186 343 10;
#X obj 33 69 vsl 30 128 0 1 0 0 \$0-foo_s4 \$0-foo_r empty 0 -9 0 10
-204786 -1 -1 10143 1;
#X obj 66 69 vsl 30 128 0 1 0 0 \$0-foo_s5 \$0-foo_r empty 0 -9 0 10
-204786 -1 -1 6914 1;
#X obj 99 69 vsl 30 128 0 4 0 0 \$0-foo_6 \$0-foo_r empty 0 -9 0 10
-204786 -1 -1 4893 1;
#X floatatom 32 202 5 0 0 0 - - -;
#X floatatom 65 202 5 0 0 0 - - -;
#X floatatom 98 202 5 0 0 0 - - -;
#X obj 58 224 inlet;
#X obj 14 265 outlet;
#X obj 58 245 3dJointParser \$1;
#X obj 58 265 unpack 0 0 0;
#X obj 142 270 outlet;
#X connect 0 0 3 0;
#X connect 1 0 4 0;
#X connect 2 0 5 0;
#X connect 6 0 8 0;
#X connect 8 0 9 0;
#X connect 8 0 7 0;
#X connect 8 1 10 0;
#X connect 9 0 0 0;
#X connect 9 1 1 0;
#X connect 9 2 2 0;
#X coords 0 -1 1 1 102 170 1 30 50;
