#N canvas 414 406 450 300 10;
#X obj 87 50 unpack 0 0 0 0;
#X obj 40 18 inlet;
#X obj 103 116 outlet;
#X obj 113 70 pack 0 0 0;
#X obj 58 116 outlet;
#X obj 20 65 route \$1;
#X obj 218 45 == 0;
#X obj 218 25 \$1;
#X obj 218 5 loadbang;
#X obj 87 28 gate;
#X connect 0 0 2 0;
#X connect 0 1 3 0;
#X connect 0 2 3 1;
#X connect 0 3 3 2;
#X connect 1 0 5 0;
#X connect 1 0 9 1;
#X connect 3 0 4 0;
#X connect 5 0 4 0;
#X connect 6 0 9 0;
#X connect 7 0 6 0;
#X connect 8 0 7 0;
#X connect 9 0 0 0;
