#N canvas 347 614 380 236 10;
#X obj 77 20 inlet;
#X obj 51 180 outlet;
#X obj 36 125 /;
#X obj 32 71 unpack 0 0 0;
#X obj 78 42 t l l;
#X obj 80 125 /;
#X obj 120 125 /;
#X obj 51 153 pack 0 0 0;
#X text 139 92 [/ ] object is division-by-0 protected;
#X obj 128 71 3dModulus;
#X connect 0 0 4 0;
#X connect 2 0 7 0;
#X connect 3 0 2 0;
#X connect 3 1 5 0;
#X connect 3 2 6 0;
#X connect 4 0 3 0;
#X connect 4 1 9 0;
#X connect 5 0 7 1;
#X connect 6 0 7 2;
#X connect 7 0 1 0;
#X connect 9 0 6 1;
#X connect 9 0 5 1;
#X connect 9 0 2 1;
