#N canvas 231 68 310 345 10;
#X obj 78 11 inlet;
#X obj 78 32 3dBasisDecod;
#X obj -37 102 3dNormalize;
#X obj 70 136 3dSum;
#X obj 39 103 3dProd -1;
#X obj 72 189 3dNormalize;
#X obj 168 127 3dSum;
#X obj 112 106 3dProd -1;
#X obj 182 163 3dProject;
#X obj 151 224 3dSum;
#X obj 182 185 3dProd -1;
#X obj 151 246 3dNormalize;
#X obj 48 300 outlet;
#X text 125 308 Gram-Schmidt Process;
#X obj 48 277 3dBasisCod;
#X obj 39 81 3dProject;
#X obj 112 84 3dProject;
#X connect 0 0 1 0;
#X connect 1 0 2 0;
#X connect 1 0 15 1;
#X connect 1 0 16 0;
#X connect 1 1 3 1;
#X connect 1 1 15 0;
#X connect 1 2 6 1;
#X connect 1 2 8 1;
#X connect 1 2 16 1;
#X connect 2 0 14 0;
#X connect 3 0 5 0;
#X connect 3 0 8 0;
#X connect 4 0 3 0;
#X connect 5 0 14 1;
#X connect 6 0 9 0;
#X connect 7 0 6 0;
#X connect 8 0 10 0;
#X connect 9 0 11 0;
#X connect 10 0 9 1;
#X connect 11 0 14 2;
#X connect 14 0 12 0;
#X connect 15 0 4 0;
#X connect 16 0 7 0;
