#N canvas 242 161 258 425 10;
#X obj 60 11 inlet;
#X obj 15 298 outlet;
#X obj 89 78 3dDiff;
#X obj 73 137 3dCrossProd;
#X obj 73 161 3dNormalize;
#X obj 86 189 list 0;
#X obj 89 102 t l l;
#X obj 86 212 t b l;
#X obj 39 212 list;
#X obj 15 277 list prepend;
#X obj 39 243 3dDistToPlane;
#X obj 60 40 t l l;
#X connect 0 0 11 0;
#X connect 2 0 6 0;
#X connect 3 0 4 0;
#X connect 4 0 5 0;
#X connect 4 0 9 1;
#X connect 5 0 7 0;
#X connect 6 0 3 1;
#X connect 6 1 3 0;
#X connect 7 0 8 0;
#X connect 7 1 10 1;
#X connect 8 0 10 0;
#X connect 9 0 1 0;
#X connect 10 0 9 0;
#X connect 11 0 2 0;
#X connect 11 1 8 1;
