#N canvas 560 281 139 228 10;
#X floatatom 33 70 7 0 0 0 - - -;
#X floatatom 33 88 7 0 0 0 - - -;
#X floatatom 33 106 7 0 0 0 - - -;
#X obj 32 8 inlet;
#X obj 32 28 unpack 0 0 0;
#X obj 18 171 pack 0 0 0;
#X obj 18 194 outlet;
#X obj 45 138 t b f;
#X obj 81 138 t b f;
#X connect 0 0 5 0;
#X connect 1 0 7 0;
#X connect 2 0 8 0;
#X connect 3 0 4 0;
#X connect 4 0 0 0;
#X connect 4 1 1 0;
#X connect 4 2 2 0;
#X connect 5 0 6 0;
#X connect 7 0 5 0;
#X connect 7 1 5 1;
#X connect 8 0 5 0;
#X connect 8 1 5 2;
#X coords 0 -1 1 1 50 75 1 30 50;
