#N canvas 408 455 221 280 10;
#X obj 21 19 inlet;
#X obj 63 20 inlet;
#X obj 32 49 list;
#X obj 32 71 expr $f4*$f1 \; $f4*$f2 \; $f4*$f3;
#X obj 41 126 pack f f f;
#X obj 41 148 outlet;
#X obj 110 20 loadbang;
#X obj 110 41 \$1;
#X connect 0 0 2 0;
#X connect 1 0 2 1;
#X connect 2 0 3 0;
#X connect 3 0 4 0;
#X connect 3 1 4 1;
#X connect 3 2 4 2;
#X connect 4 0 5 0;
#X connect 6 0 7 0;
#X connect 7 0 2 1;
