#N canvas 166 280 403 344 10;
#X obj 52 11 inlet;
#X obj 130 28 inlet;
#X obj 96 151 /;
#X obj 61 183 3dProd;
#X obj 61 209 outlet;
#X obj 50 104 3dDotProd;
#X obj 138 105 3dDotProd;
#X obj 52 75 list;
#X obj 130 51 t l b l l l;
#X connect 0 0 7 1;
#X connect 1 0 8 0;
#X connect 2 0 3 1;
#X connect 3 0 4 0;
#X connect 5 0 2 0;
#X connect 6 0 2 1;
#X connect 7 0 5 0;
#X connect 8 0 3 0;
#X connect 8 1 7 0;
#X connect 8 2 5 1;
#X connect 8 3 6 0;
#X connect 8 4 6 1;
