#N canvas 183 374 311 246 10;
#X obj 84 42 3dPoint;
#X obj 164 42 3dPoint;
#X obj 106 155 3dPoint;
#X obj 106 130 3dProject;
#X text 14 11 3dProject: projects a vector onto another;
#X connect 0 0 3 0;
#X connect 1 0 3 1;
#X connect 3 0 2 0;
