#N canvas 163 254 222 145 10;
#X obj 53 24 inlet;
#X obj 16 113 outlet;
#X obj 16 89 expr abs($f1) < abs($f2);
#X obj 156 55 \$1;
#X obj 156 34 loadbang;
#X obj 116 16 inlet;
#X obj 53 44 route set;
#X connect 0 0 6 0;
#X connect 2 0 1 0;
#X connect 3 0 2 1;
#X connect 4 0 3 0;
#X connect 5 0 2 1;
#X connect 6 0 2 1;
#X connect 6 1 2 0;
