#N canvas 0 22 309 160 10;
#X obj 116 37 unpack f f f f;
#X obj 119 105 pack f f f f;
#X obj 82 79 average 20;
#X obj 12 79 average 20;
#X obj 152 79 average 20;
#X obj 224 80 average 20;
#X obj 116 14 inlet;
#X obj 119 128 outlet;
#X connect 0 0 3 0;
#X connect 0 1 2 0;
#X connect 0 2 4 0;
#X connect 0 3 5 0;
#X connect 1 0 7 0;
#X connect 2 0 1 1;
#X connect 3 0 1 0;
#X connect 4 0 1 2;
#X connect 5 0 1 3;
#X connect 6 0 0 0;
