#N canvas 127 187 450 300 10;
#X obj 264 17 inlet;
#X obj 111 20 inlet;
#X obj 192 90 expr $f1+$f4 \; $f2+$f5 \; $f3+$f6;
#X obj 192 66 list;
#X obj 200 146 pack f f f;
#X obj 199 171 outlet;
#X connect 0 0 3 1;
#X connect 1 0 3 0;
#X connect 2 0 4 0;
#X connect 2 1 4 1;
#X connect 2 2 4 2;
#X connect 3 0 2 0;
#X connect 4 0 5 0;
