#N canvas 317 205 198 306 10;
#X obj -3 113 list;
#X obj 13 27 bng 20 250 50 0 \$0-foo_s \$0-foo_r P 7 10 0 13 -261234
-258113 -1;
#X obj -32 203 mtof;
#X obj -32 224 osc~;
#X obj -32 246 *~ 0.1;
#X obj -32 136 3dDistToPoint;
#X obj 94 115 list;
#X obj 62 137 3dDistToPoint;
#X obj 62 182 log;
#X obj 62 160 + 1;
#X obj -32 158 * -127;
#X obj -32 181 + 127;
#X obj -32 89 3dJointParser;
#X obj 62 90 3dJointParser;
#X obj -32 269 outlet~;
#X obj 62 67 inlet;
#X obj -32 68 inlet;
#X obj 37 27 bng 20 250 50 0 \$0-foo_s \$0-foo_r V 7 10 0 13 -261234
-258113 -1;
#X connect 0 0 5 1;
#X connect 1 0 0 0;
#X connect 2 0 3 0;
#X connect 3 0 4 0;
#X connect 4 0 14 0;
#X connect 5 0 10 0;
#X connect 6 0 7 1;
#X connect 7 0 9 0;
#X connect 8 0 4 1;
#X connect 9 0 8 0;
#X connect 10 0 11 0;
#X connect 11 0 2 0;
#X connect 12 0 0 1;
#X connect 12 0 5 0;
#X connect 13 0 6 1;
#X connect 13 0 7 0;
#X connect 15 0 13 0;
#X connect 16 0 12 0;
#X connect 17 0 6 0;
#X coords 0 -1 1 1 50 42 1 10 10;
