#N canvas 721 370 274 249 10;
#X obj 51 15 inlet;
#X obj 70 214 outlet;
#X obj 51 39 3dBasisDecod;
#X obj 70 192 3dBasisCod;
#X obj 11 72 unpack f f f;
#X obj 95 72 unpack f f f;
#X obj 180 73 unpack f f f;
#X obj 12 147 pack f f f;
#X obj 93 147 pack f f f;
#X obj 179 146 pack f f f;
#X connect 0 0 2 0;
#X connect 2 0 4 0;
#X connect 2 1 5 0;
#X connect 2 2 6 0;
#X connect 3 0 1 0;
#X connect 4 0 7 0;
#X connect 4 1 8 0;
#X connect 4 2 9 0;
#X connect 5 0 7 1;
#X connect 5 1 8 1;
#X connect 5 2 9 1;
#X connect 6 0 7 2;
#X connect 6 1 8 2;
#X connect 6 2 9 2;
#X connect 7 0 3 0;
#X connect 8 0 3 1;
#X connect 9 0 3 2;
