#N canvas 269 367 314 331 10;
#X obj 68 31 3dTransform;
#X obj 38 -94 3dPoint;
#X msg 38 -116 0 0 0;
#X obj 68 53 3dPoint;
#X obj 142 0 3dBasisCod;
#X obj 115 -94 3dPoint;
#X obj 170 -94 3dPoint;
#X obj 225 -94 3dPoint;
#X msg 170 -125 0 0 0;
#X text 13 -169 3dTransform: Applies a given transfer function;
#X text 13 -152 to a vector;
#X connect 0 0 3 0;
#X connect 1 0 0 0;
#X connect 2 0 1 0;
#X connect 4 0 0 1;
#X connect 5 0 4 0;
#X connect 6 0 4 1;
#X connect 7 0 4 2;
#X connect 8 0 7 0;
#X connect 8 0 6 0;
#X connect 8 0 5 0;
