#N canvas 324 390 225 227 10;
#X obj 139 18 inlet;
#X obj 45 17 inlet;
#X obj 60 195 outlet;
#X obj 139 43 3dBasisDecod;
#X obj 4 105 3dProd;
#X obj 45 40 unpack 0 0 0;
#X obj 47 105 3dProd;
#X obj 90 105 3dProd;
#X obj 24 135 3dSum;
#X obj 60 168 3dSum;
#X obj 45 75 t b f;
#X obj 83 75 t b f;
#X obj 8 75 t b f;
#X connect 0 0 3 0;
#X connect 1 0 5 0;
#X connect 3 0 4 0;
#X connect 3 1 6 0;
#X connect 3 2 7 0;
#X connect 4 0 8 0;
#X connect 5 0 12 0;
#X connect 5 1 10 0;
#X connect 5 2 11 0;
#X connect 6 0 8 1;
#X connect 7 0 9 1;
#X connect 8 0 9 0;
#X connect 9 0 2 0;
#X connect 10 0 6 0;
#X connect 10 1 6 1;
#X connect 11 0 7 0;
#X connect 11 1 7 1;
#X connect 12 0 4 0;
#X connect 12 1 4 1;
