#N canvas 163 254 413 270 10;
#X obj 69 16 inlet;
#X obj 151 15 inlet;
#X obj 115 174 outlet;
#X obj 69 38 unpack 0 0 0;
#X obj 151 38 unpack 0 0 0;
#X obj 115 150 pack 0 0 0;
#X obj 92 114 -;
#X obj 94 89 t b f;
#X obj 205 105 -;
#X obj 207 80 t b f;
#X obj 153 105 -;
#X obj 155 80 t b f;
#X connect 0 0 3 0;
#X connect 1 0 4 0;
#X connect 3 0 6 0;
#X connect 3 1 10 0;
#X connect 3 2 8 0;
#X connect 4 0 7 0;
#X connect 4 1 11 0;
#X connect 4 2 9 0;
#X connect 5 0 2 0;
#X connect 6 0 5 0;
#X connect 7 0 6 0;
#X connect 7 1 6 1;
#X connect 8 0 5 2;
#X connect 9 0 8 0;
#X connect 9 1 8 1;
#X connect 10 0 5 1;
#X connect 11 0 10 0;
#X connect 11 1 10 1;
